<mxfile host="app.diagrams.net" agent="Mozilla/5.0 (Windows NT 10.0; Win64; x64) AppleWebKit/537.36 (KHTML, like Gecko) Chrome/131.0.0.0 Safari/537.36" version="25.0.3">
  <diagram name="Página-1" id="BRUkwJ32wp9qURs5Ah7D">
    <mxGraphModel dx="2963" dy="1103" grid="1" gridSize="10" guides="1" tooltips="1" connect="1" arrows="1" fold="1" page="1" pageScale="1" pageWidth="827" pageHeight="1169" math="0" shadow="0">
      <root>
        <mxCell id="0" />
        <mxCell id="1" parent="0" />
        <mxCell id="SGzfCD33fUTljajn-jBd-3" value="" style="edgeStyle=orthogonalEdgeStyle;rounded=0;orthogonalLoop=1;jettySize=auto;html=1;" edge="1" parent="1" source="SGzfCD33fUTljajn-jBd-1" target="SGzfCD33fUTljajn-jBd-2">
          <mxGeometry relative="1" as="geometry" />
        </mxCell>
        <mxCell id="SGzfCD33fUTljajn-jBd-1" value="Inicio" style="ellipse;whiteSpace=wrap;html=1;" vertex="1" parent="1">
          <mxGeometry x="81" y="50" width="120" height="50" as="geometry" />
        </mxCell>
        <mxCell id="SGzfCD33fUTljajn-jBd-5" value="" style="edgeStyle=orthogonalEdgeStyle;rounded=0;orthogonalLoop=1;jettySize=auto;html=1;" edge="1" parent="1" source="SGzfCD33fUTljajn-jBd-2">
          <mxGeometry relative="1" as="geometry">
            <mxPoint x="141" y="230" as="targetPoint" />
          </mxGeometry>
        </mxCell>
        <mxCell id="SGzfCD33fUTljajn-jBd-2" value="Revisión de videos" style="whiteSpace=wrap;html=1;" vertex="1" parent="1">
          <mxGeometry x="81" y="130" width="120" height="60" as="geometry" />
        </mxCell>
        <mxCell id="SGzfCD33fUTljajn-jBd-7" value="" style="edgeStyle=orthogonalEdgeStyle;rounded=0;orthogonalLoop=1;jettySize=auto;html=1;" edge="1" parent="1" source="SGzfCD33fUTljajn-jBd-4" target="SGzfCD33fUTljajn-jBd-6">
          <mxGeometry relative="1" as="geometry" />
        </mxCell>
        <mxCell id="SGzfCD33fUTljajn-jBd-24" value="SI" style="edgeLabel;html=1;align=center;verticalAlign=middle;resizable=0;points=[];" vertex="1" connectable="0" parent="SGzfCD33fUTljajn-jBd-7">
          <mxGeometry x="-0.05" y="1" relative="1" as="geometry">
            <mxPoint as="offset" />
          </mxGeometry>
        </mxCell>
        <mxCell id="SGzfCD33fUTljajn-jBd-4" value="¿&lt;span style=&quot;background-color: initial;&quot;&gt;Son vídeos válidos?&lt;/span&gt;" style="rhombus;whiteSpace=wrap;html=1;" vertex="1" parent="1">
          <mxGeometry x="80" y="230" width="120" height="80" as="geometry" />
        </mxCell>
        <mxCell id="SGzfCD33fUTljajn-jBd-6" value="Procesamiento para obtener fotogramas por vídeo" style="whiteSpace=wrap;html=1;" vertex="1" parent="1">
          <mxGeometry x="301" y="240" width="120" height="60" as="geometry" />
        </mxCell>
        <mxCell id="SGzfCD33fUTljajn-jBd-21" value="" style="edgeStyle=orthogonalEdgeStyle;rounded=0;orthogonalLoop=1;jettySize=auto;html=1;" edge="1" parent="1" source="SGzfCD33fUTljajn-jBd-8" target="SGzfCD33fUTljajn-jBd-20">
          <mxGeometry relative="1" as="geometry" />
        </mxCell>
        <mxCell id="SGzfCD33fUTljajn-jBd-22" value="SI" style="edgeLabel;html=1;align=center;verticalAlign=middle;resizable=0;points=[];" vertex="1" connectable="0" parent="SGzfCD33fUTljajn-jBd-21">
          <mxGeometry x="-0.1733" y="2" relative="1" as="geometry">
            <mxPoint as="offset" />
          </mxGeometry>
        </mxCell>
        <mxCell id="SGzfCD33fUTljajn-jBd-8" value="¿se requiere filtrar?" style="rhombus;whiteSpace=wrap;html=1;" vertex="1" parent="1">
          <mxGeometry x="81" y="430" width="120" height="80" as="geometry" />
        </mxCell>
        <mxCell id="SGzfCD33fUTljajn-jBd-13" style="edgeStyle=orthogonalEdgeStyle;rounded=0;orthogonalLoop=1;jettySize=auto;html=1;exitX=0.5;exitY=1;exitDx=0;exitDy=0;entryX=0;entryY=0.5;entryDx=0;entryDy=0;entryPerimeter=0;" edge="1" parent="1" source="SGzfCD33fUTljajn-jBd-8" target="SGzfCD33fUTljajn-jBd-12">
          <mxGeometry relative="1" as="geometry">
            <mxPoint x="286" y="600" as="sourcePoint" />
          </mxGeometry>
        </mxCell>
        <mxCell id="SGzfCD33fUTljajn-jBd-19" value="NO" style="edgeLabel;html=1;align=center;verticalAlign=middle;resizable=0;points=[];" vertex="1" connectable="0" parent="SGzfCD33fUTljajn-jBd-13">
          <mxGeometry x="-0.35" y="-1" relative="1" as="geometry">
            <mxPoint x="1" y="-48" as="offset" />
          </mxGeometry>
        </mxCell>
        <mxCell id="SGzfCD33fUTljajn-jBd-26" value="" style="edgeStyle=orthogonalEdgeStyle;rounded=0;orthogonalLoop=1;jettySize=auto;html=1;exitX=0.5;exitY=1;exitDx=0;exitDy=0;exitPerimeter=0;entryX=1;entryY=0.5;entryDx=0;entryDy=0;" edge="1" parent="1" source="SGzfCD33fUTljajn-jBd-12" target="SGzfCD33fUTljajn-jBd-25">
          <mxGeometry relative="1" as="geometry" />
        </mxCell>
        <mxCell id="SGzfCD33fUTljajn-jBd-49" style="edgeStyle=orthogonalEdgeStyle;rounded=0;orthogonalLoop=1;jettySize=auto;html=1;exitX=1;exitY=0.5;exitDx=0;exitDy=0;exitPerimeter=0;" edge="1" parent="1" source="SGzfCD33fUTljajn-jBd-12">
          <mxGeometry relative="1" as="geometry">
            <mxPoint x="480" y="1060" as="targetPoint" />
          </mxGeometry>
        </mxCell>
        <mxCell id="SGzfCD33fUTljajn-jBd-12" value="Dataset de 741 fotogramas válidos" style="shape=cylinder3;whiteSpace=wrap;html=1;boundedLbl=1;backgroundOutline=1;size=15;" vertex="1" parent="1">
          <mxGeometry x="316" y="555" width="90" height="100" as="geometry" />
        </mxCell>
        <mxCell id="SGzfCD33fUTljajn-jBd-15" style="edgeStyle=orthogonalEdgeStyle;rounded=0;orthogonalLoop=1;jettySize=auto;html=1;" edge="1" parent="1" source="SGzfCD33fUTljajn-jBd-14" target="SGzfCD33fUTljajn-jBd-2">
          <mxGeometry relative="1" as="geometry" />
        </mxCell>
        <mxCell id="SGzfCD33fUTljajn-jBd-14" value="Dataset de vídeos" style="shape=cylinder3;whiteSpace=wrap;html=1;boundedLbl=1;backgroundOutline=1;size=15;" vertex="1" parent="1">
          <mxGeometry x="301" y="110" width="90" height="100" as="geometry" />
        </mxCell>
        <mxCell id="SGzfCD33fUTljajn-jBd-18" style="edgeStyle=orthogonalEdgeStyle;rounded=0;orthogonalLoop=1;jettySize=auto;html=1;exitX=0.5;exitY=1;exitDx=0;exitDy=0;entryX=0.5;entryY=0;entryDx=0;entryDy=0;" edge="1" parent="1" source="SGzfCD33fUTljajn-jBd-46" target="SGzfCD33fUTljajn-jBd-8">
          <mxGeometry relative="1" as="geometry">
            <mxPoint x="141" y="440" as="targetPoint" />
            <mxPoint x="346" y="425" as="sourcePoint" />
          </mxGeometry>
        </mxCell>
        <mxCell id="SGzfCD33fUTljajn-jBd-17" style="edgeStyle=orthogonalEdgeStyle;rounded=0;orthogonalLoop=1;jettySize=auto;html=1;entryX=0.5;entryY=0;entryDx=0;entryDy=0;" edge="1" parent="1" source="SGzfCD33fUTljajn-jBd-6" target="SGzfCD33fUTljajn-jBd-46">
          <mxGeometry relative="1" as="geometry">
            <mxPoint x="301" y="380" as="targetPoint" />
          </mxGeometry>
        </mxCell>
        <mxCell id="SGzfCD33fUTljajn-jBd-20" value="Eliminar fotograma" style="shape=process;whiteSpace=wrap;html=1;backgroundOutline=1;" vertex="1" parent="1">
          <mxGeometry x="301" y="440" width="120" height="60" as="geometry" />
        </mxCell>
        <mxCell id="SGzfCD33fUTljajn-jBd-23" style="edgeStyle=orthogonalEdgeStyle;rounded=0;orthogonalLoop=1;jettySize=auto;html=1;entryX=0.5;entryY=0;entryDx=0;entryDy=0;entryPerimeter=0;exitX=0.5;exitY=1;exitDx=0;exitDy=0;" edge="1" parent="1" source="SGzfCD33fUTljajn-jBd-20" target="SGzfCD33fUTljajn-jBd-12">
          <mxGeometry relative="1" as="geometry" />
        </mxCell>
        <mxCell id="SGzfCD33fUTljajn-jBd-34" style="edgeStyle=orthogonalEdgeStyle;rounded=0;orthogonalLoop=1;jettySize=auto;html=1;exitX=0.5;exitY=1;exitDx=0;exitDy=0;entryX=0.5;entryY=0;entryDx=0;entryDy=0;" edge="1" parent="1" source="SGzfCD33fUTljajn-jBd-25" target="SGzfCD33fUTljajn-jBd-33">
          <mxGeometry relative="1" as="geometry" />
        </mxCell>
        <mxCell id="SGzfCD33fUTljajn-jBd-25" value="Procesamiento de pre-etiquetado" style="whiteSpace=wrap;html=1;" vertex="1" parent="1">
          <mxGeometry x="81" y="655" width="120" height="60" as="geometry" />
        </mxCell>
        <mxCell id="SGzfCD33fUTljajn-jBd-48" style="edgeStyle=orthogonalEdgeStyle;rounded=0;orthogonalLoop=1;jettySize=auto;html=1;entryX=0.5;entryY=0;entryDx=0;entryDy=0;" edge="1" parent="1" source="SGzfCD33fUTljajn-jBd-29" target="SGzfCD33fUTljajn-jBd-47">
          <mxGeometry relative="1" as="geometry" />
        </mxCell>
        <mxCell id="SGzfCD33fUTljajn-jBd-29" value="Dataset de etiquetas por fotograma" style="shape=cylinder3;whiteSpace=wrap;html=1;boundedLbl=1;backgroundOutline=1;size=15;" vertex="1" parent="1">
          <mxGeometry x="316" y="900" width="90" height="100" as="geometry" />
        </mxCell>
        <mxCell id="SGzfCD33fUTljajn-jBd-40" value="SI" style="edgeStyle=orthogonalEdgeStyle;rounded=0;orthogonalLoop=1;jettySize=auto;html=1;entryX=0;entryY=0.5;entryDx=0;entryDy=0;" edge="1" parent="1" source="SGzfCD33fUTljajn-jBd-33" target="SGzfCD33fUTljajn-jBd-36">
          <mxGeometry relative="1" as="geometry" />
        </mxCell>
        <mxCell id="SGzfCD33fUTljajn-jBd-33" value="¿se requiere corregir etiquetas?" style="rhombus;whiteSpace=wrap;html=1;" vertex="1" parent="1">
          <mxGeometry x="81" y="770" width="120" height="80" as="geometry" />
        </mxCell>
        <mxCell id="SGzfCD33fUTljajn-jBd-36" value="Correción de etiquetas" style="shape=process;whiteSpace=wrap;html=1;backgroundOutline=1;" vertex="1" parent="1">
          <mxGeometry x="301" y="780" width="120" height="60" as="geometry" />
        </mxCell>
        <mxCell id="SGzfCD33fUTljajn-jBd-41" style="edgeStyle=orthogonalEdgeStyle;rounded=0;orthogonalLoop=1;jettySize=auto;html=1;entryX=0.5;entryY=0;entryDx=0;entryDy=0;entryPerimeter=0;exitX=0.5;exitY=1;exitDx=0;exitDy=0;" edge="1" parent="1" source="SGzfCD33fUTljajn-jBd-36" target="SGzfCD33fUTljajn-jBd-29">
          <mxGeometry relative="1" as="geometry">
            <mxPoint x="361" y="970" as="sourcePoint" />
          </mxGeometry>
        </mxCell>
        <mxCell id="SGzfCD33fUTljajn-jBd-43" style="rounded=0;orthogonalLoop=1;jettySize=auto;html=1;entryX=0;entryY=0.5;entryDx=0;entryDy=0;entryPerimeter=0;exitX=0.5;exitY=1;exitDx=0;exitDy=0;edgeStyle=orthogonalEdgeStyle;" edge="1" parent="1" source="SGzfCD33fUTljajn-jBd-33" target="SGzfCD33fUTljajn-jBd-29">
          <mxGeometry relative="1" as="geometry" />
        </mxCell>
        <mxCell id="SGzfCD33fUTljajn-jBd-44" value="NO" style="edgeLabel;html=1;align=center;verticalAlign=middle;resizable=0;points=[];" vertex="1" connectable="0" parent="SGzfCD33fUTljajn-jBd-43">
          <mxGeometry x="-0.03" y="-3" relative="1" as="geometry">
            <mxPoint x="-33" y="-63" as="offset" />
          </mxGeometry>
        </mxCell>
        <mxCell id="SGzfCD33fUTljajn-jBd-46" value="3404 fotogramas" style="shape=parallelogram;perimeter=parallelogramPerimeter;whiteSpace=wrap;html=1;fixedSize=1;" vertex="1" parent="1">
          <mxGeometry x="301" y="330" width="120" height="60" as="geometry" />
        </mxCell>
        <mxCell id="SGzfCD33fUTljajn-jBd-47" value="1" style="ellipse;whiteSpace=wrap;html=1;aspect=fixed;" vertex="1" parent="1">
          <mxGeometry x="460" y="1060" width="40" height="40" as="geometry" />
        </mxCell>
      </root>
    </mxGraphModel>
  </diagram>
</mxfile>
